<svg width="428" height="90" viewBox="0 0 428 90" fill="none" xmlns="http://www.w3.org/2000/svg">
<rect width="428" height="90" fill="white"/>
<path d="M45.2812 72H38.4961V48.3398H12.6914V72H5.94141V20.8125H12.6914V42.8203H38.4961V20.8125H45.2812V72ZM54.5273 52.6289C54.5273 48.9023 55.2539 45.5508 56.707 42.5742C58.1836 39.5977 60.2227 37.3008 62.8242 35.6836C65.4492 34.0664 68.4375 33.2578 71.7891 33.2578C76.9688 33.2578 81.1523 35.0508 84.3398 38.6367C87.5508 42.2227 89.1562 46.9922 89.1562 52.9453V53.4023C89.1562 57.1055 88.4414 60.4336 87.0117 63.3867C85.6055 66.3164 83.5781 68.6016 80.9297 70.2422C78.3047 71.8828 75.2812 72.7031 71.8594 72.7031C66.7031 72.7031 62.5195 70.9102 59.3086 67.3242C56.1211 63.7383 54.5273 58.9922 54.5273 53.0859V52.6289ZM61.0664 53.4023C61.0664 57.6211 62.0391 61.0078 63.9844 63.5625C65.9531 66.1172 68.5781 67.3945 71.8594 67.3945C75.1641 67.3945 77.7891 66.1055 79.7344 63.5273C81.6797 60.9258 82.6523 57.293 82.6523 52.6289C82.6523 48.457 81.6562 45.082 79.6641 42.5039C77.6953 39.9023 75.0703 38.6016 71.7891 38.6016C68.5781 38.6016 65.9883 39.8789 64.0195 42.4336C62.0508 44.9883 61.0664 48.6445 61.0664 53.4023ZM103.43 33.9609L103.605 38.1797C106.395 34.8984 110.156 33.2578 114.891 33.2578C120.211 33.2578 123.832 35.2969 125.754 39.375C127.02 37.5469 128.66 36.0703 130.676 34.9453C132.715 33.8203 135.117 33.2578 137.883 33.2578C146.227 33.2578 150.469 37.6758 150.609 46.5117V72H144.105V46.8984C144.105 44.1797 143.484 42.1523 142.242 40.8164C141 39.457 138.914 38.7773 135.984 38.7773C133.57 38.7773 131.566 39.5039 129.973 40.957C128.379 42.3867 127.453 44.3203 127.195 46.7578V72H120.656V47.0742C120.656 41.543 117.949 38.7773 112.535 38.7773C108.27 38.7773 105.352 40.5938 103.781 44.2266V72H97.2773V33.9609H103.43ZM176.238 72.7031C171.082 72.7031 166.887 71.0156 163.652 67.6406C160.418 64.2422 158.801 59.707 158.801 54.0352V52.8398C158.801 49.0664 159.516 45.7031 160.945 42.75C162.398 39.7734 164.414 37.4531 166.992 35.7891C169.594 34.1016 172.406 33.2578 175.43 33.2578C180.375 33.2578 184.219 34.8867 186.961 38.1445C189.703 41.4023 191.074 46.0664 191.074 52.1367V54.8438H165.305C165.398 58.5938 166.488 61.6289 168.574 63.9492C170.684 66.2461 173.355 67.3945 176.59 67.3945C178.887 67.3945 180.832 66.9258 182.426 65.9883C184.02 65.0508 185.414 63.8086 186.609 62.2617L190.582 65.3555C187.395 70.2539 182.613 72.7031 176.238 72.7031ZM175.43 38.6016C172.805 38.6016 170.602 39.5625 168.82 41.4844C167.039 43.3828 165.938 46.0547 165.516 49.5H184.57V49.0078C184.383 45.7031 183.492 43.1484 181.898 41.3438C180.305 39.5156 178.148 38.6016 175.43 38.6016ZM240.398 21.6C244.91 21.6 248.774 22.728 251.99 24.984C255.254 27.192 257.726 30.216 259.406 34.056C261.134 37.848 261.998 42.096 261.998 46.8C261.998 51.504 261.134 55.776 259.406 59.616C257.726 63.408 255.254 66.432 251.99 68.688C248.774 70.896 244.91 72 240.398 72H223.19C221.942 72 220.886 71.592 220.022 70.776C219.206 69.912 218.798 68.856 218.798 67.608V25.992C218.798 24.744 219.206 23.712 220.022 22.896C220.886 22.032 221.942 21.6 223.19 21.6H240.398ZM239.678 63.72C243.998 63.72 247.238 62.136 249.398 58.968C251.558 55.752 252.638 51.696 252.638 46.8C252.638 41.904 251.534 37.872 249.326 34.704C247.166 31.488 243.95 29.88 239.678 29.88H227.798V63.72H239.678ZM304.67 51.84C304.622 52.992 304.166 53.928 303.302 54.648C302.438 55.368 301.43 55.728 300.278 55.728H276.518C277.094 58.56 278.414 60.792 280.478 62.424C282.542 64.008 284.87 64.8 287.462 64.8C289.43 64.8 290.966 64.632 292.07 64.296C293.174 63.912 294.038 63.528 294.662 63.144C295.334 62.712 295.79 62.424 296.03 62.28C296.894 61.848 297.71 61.632 298.478 61.632C299.486 61.632 300.35 61.992 301.07 62.712C301.79 63.432 302.15 64.272 302.15 65.232C302.15 66.528 301.478 67.704 300.134 68.76C298.79 69.864 296.99 70.8 294.734 71.568C292.478 72.336 290.198 72.72 287.894 72.72C283.862 72.72 280.334 71.88 277.31 70.2C274.334 68.52 272.03 66.216 270.398 63.288C268.766 60.312 267.95 56.976 267.95 53.28C267.95 49.152 268.814 45.528 270.542 42.408C272.27 39.288 274.55 36.912 277.382 35.28C280.214 33.6 283.238 32.76 286.454 32.76C289.622 32.76 292.598 33.624 295.382 35.352C298.214 37.08 300.47 39.408 302.15 42.336C303.83 45.264 304.67 48.432 304.67 51.84ZM286.454 40.68C280.886 40.68 277.598 43.296 276.59 48.528H295.454V48.024C295.262 46.008 294.278 44.28 292.502 42.84C290.726 41.4 288.71 40.68 286.454 40.68ZM328.651 32.76C332.731 32.76 336.019 33.408 338.515 34.704C341.011 35.952 342.259 37.632 342.259 39.744C342.259 40.8 341.947 41.736 341.323 42.552C340.699 43.32 339.883 43.704 338.875 43.704C338.107 43.704 337.483 43.608 337.003 43.416C336.523 43.176 336.043 42.888 335.563 42.552C335.131 42.168 334.699 41.856 334.267 41.616C333.787 41.376 333.067 41.16 332.107 40.968C331.195 40.776 330.451 40.68 329.875 40.68C326.275 40.68 323.443 41.808 321.379 44.064C319.363 46.272 318.355 49.176 318.355 52.776C318.355 56.232 319.387 59.112 321.451 61.416C323.515 63.672 326.155 64.8 329.371 64.8C331.723 64.8 333.475 64.512 334.627 63.936C334.915 63.792 335.299 63.552 335.779 63.216C336.307 62.832 336.787 62.544 337.219 62.352C337.651 62.16 338.179 62.064 338.803 62.064C340.003 62.064 340.939 62.448 341.611 63.216C342.331 63.984 342.691 64.968 342.691 66.168C342.691 67.32 342.019 68.4 340.675 69.408C339.331 70.416 337.555 71.232 335.347 71.856C333.139 72.432 330.787 72.72 328.291 72.72C324.595 72.72 321.331 71.856 318.499 70.128C315.715 68.4 313.555 66.024 312.019 63C310.483 59.928 309.715 56.52 309.715 52.776C309.715 48.888 310.507 45.432 312.091 42.408C313.723 39.384 315.979 37.032 318.859 35.352C321.739 33.624 325.003 32.76 328.651 32.76ZM385.938 52.776C385.938 56.616 385.074 60.072 383.346 63.144C381.618 66.168 379.242 68.52 376.218 70.2C373.242 71.88 369.954 72.72 366.354 72.72C362.706 72.72 359.394 71.88 356.418 70.2C353.442 68.52 351.09 66.168 349.362 63.144C347.634 60.072 346.77 56.616 346.77 52.776C346.77 48.936 347.634 45.504 349.362 42.48C351.09 39.408 353.442 37.032 356.418 35.352C359.394 33.624 362.706 32.76 366.354 32.76C369.954 32.76 373.242 33.624 376.218 35.352C379.242 37.032 381.618 39.408 383.346 42.48C385.074 45.504 385.938 48.936 385.938 52.776ZM377.298 52.776C377.298 50.424 376.794 48.336 375.786 46.512C374.826 44.64 373.506 43.2 371.826 42.192C370.194 41.184 368.37 40.68 366.354 40.68C364.338 40.68 362.49 41.184 360.81 42.192C359.178 43.2 357.858 44.64 356.85 46.512C355.89 48.336 355.41 50.424 355.41 52.776C355.41 55.128 355.89 57.216 356.85 59.04C357.858 60.864 359.178 62.28 360.81 63.288C362.49 64.296 364.338 64.8 366.354 64.8C368.37 64.8 370.194 64.296 371.826 63.288C373.506 62.28 374.826 60.864 375.786 59.04C376.794 57.216 377.298 55.128 377.298 52.776ZM413.173 32.76C414.613 32.76 415.813 33.168 416.773 33.984C417.781 34.8 418.285 35.76 418.285 36.864C418.285 38.352 417.901 39.48 417.133 40.248C416.365 40.968 415.453 41.328 414.397 41.328C413.677 41.328 412.861 41.16 411.949 40.824C411.805 40.776 411.469 40.68 410.941 40.536C410.461 40.392 409.933 40.32 409.357 40.32C408.109 40.32 406.909 40.704 405.757 41.472C404.605 42.24 403.645 43.416 402.877 45C402.157 46.536 401.797 48.384 401.797 50.544V67.608C401.797 68.856 401.389 69.912 400.573 70.776C399.757 71.592 398.725 72 397.477 72C396.229 72 395.197 71.592 394.381 70.776C393.565 69.912 393.157 68.856 393.157 67.608V37.872C393.157 36.624 393.565 35.592 394.381 34.776C395.197 33.912 396.229 33.48 397.477 33.48C398.725 33.48 399.757 33.912 400.573 34.776C401.389 35.592 401.797 36.624 401.797 37.872V38.808C402.901 36.84 404.485 35.352 406.549 34.344C408.613 33.288 410.821 32.76 413.173 32.76Z" fill="black"/>
</svg>
