<svg width="601" height="459" viewBox="0 0 601 459" fill="none" xmlns="http://www.w3.org/2000/svg">
<path d="M147.334 103.5H559.921C576.731 103.5 588.751 119.758 583.822 135.83L510.222 375.83C507.002 386.331 497.305 393.5 486.321 393.5H196.934C185.077 393.5 174.851 385.171 172.451 373.56L122.851 133.56C119.645 118.046 131.492 103.5 147.334 103.5Z" stroke="black" stroke-width="10"/>
<circle cx="435.5" cy="433.5" r="25" fill="black"/>
<circle cx="225.5" cy="433.5" r="25" fill="black"/>
<path d="M95.5 5L100.391 3.96248L99.5506 0H95.5V5ZM5 0C2.23858 0 0 2.23858 0 5C0 7.76142 2.23858 10 5 10V0ZM125 149C128.564 149 129.659 145.829 129.719 145.658C129.951 145 129.986 144.447 129.995 144.315C130.02 143.934 129.995 143.627 129.99 143.553C129.972 143.327 129.943 143.12 129.926 143.009C129.888 142.749 129.831 142.425 129.768 142.079C129.637 141.368 129.437 140.348 129.179 139.07C128.662 136.504 127.893 132.798 126.929 128.214C125 119.04 122.283 106.297 119.227 92.0162C113.112 63.4445 105.64 28.7068 100.391 3.96248L90.6088 6.03752C95.86 30.7932 103.338 65.5555 109.448 94.1088C112.504 108.39 115.218 121.117 117.143 130.271C118.106 134.85 118.868 138.523 119.376 141.045C119.632 142.311 119.818 143.263 119.932 143.886C119.991 144.208 120.022 144.393 120.034 144.474C120.043 144.535 120.03 144.457 120.019 144.317C120.017 144.286 119.993 144.011 120.017 143.652C120.025 143.531 120.058 142.987 120.288 142.334C120.347 142.168 121.439 139 125 139V149ZM95.5 0H5V10H95.5V0Z" fill="black"/>
<path d="M242 108L283.5 391.5" stroke="black" stroke-width="10"/>
<path d="M242 108L283.5 391.5" stroke="black" stroke-width="10"/>
<path d="M428.513 104.307L369.541 390.274" stroke="black" stroke-width="10"/>
<path d="M146 244H550.5" stroke="black" stroke-width="10"/>
</svg>
