<svg width="494" height="466" viewBox="0 0 494 466" fill="none" xmlns="http://www.w3.org/2000/svg">
<mask id="path-1-inside-1_3:26" fill="white">
<path fill-rule="evenodd" clip-rule="evenodd" d="M257.781 3.89979C251.209 -0.306253 242.791 -0.306262 236.219 3.89979L9.25671 149.155C-7.57366 159.926 0.0557203 186 20.0378 186H71.9999V436C71.9999 452.569 85.4314 466 102 466H391C407.568 466 421 452.569 421 436V186H473.962C493.944 186 501.574 159.926 484.743 149.155L257.781 3.89979Z"/>
</mask>
<path d="M236.219 3.89979L241.609 12.3225L241.609 12.3225L236.219 3.89979ZM257.781 3.89979L263.171 -4.52294L263.171 -4.52294L257.781 3.89979ZM9.25671 149.155L3.8662 140.732L3.8662 140.732L9.25671 149.155ZM71.9999 186H81.9999V176H71.9999V186ZM421 186V176H411V186H421ZM484.743 149.155L479.353 157.577L479.353 157.577L484.743 149.155ZM241.609 12.3225C244.895 10.2195 249.104 10.2195 252.39 12.3225L263.171 -4.52294C253.313 -10.832 240.686 -10.832 230.828 -4.52294L241.609 12.3225ZM14.6472 157.577L241.609 12.3225L230.828 -4.52295L3.8662 140.732L14.6472 157.577ZM20.0378 176C10.0467 176 6.2321 162.963 14.6472 157.577L3.8662 140.732C-21.3794 156.889 -9.93523 196 20.0378 196V176ZM71.9999 176H20.0378V196H71.9999V176ZM81.9999 436V186H61.9999V436H81.9999ZM102 456C90.9542 456 81.9999 447.046 81.9999 436H61.9999C61.9999 458.091 79.9085 476 102 476V456ZM391 456H102V476H391V456ZM411 436C411 447.046 402.046 456 391 456V476C413.091 476 431 458.091 431 436H411ZM411 186V436H431V186H411ZM473.962 176H421V196H473.962V176ZM479.353 157.577C487.768 162.963 483.953 176 473.962 176V196C503.935 196 515.379 156.889 490.134 140.732L479.353 157.577ZM252.39 12.3225L479.353 157.577L490.134 140.732L263.171 -4.52294L252.39 12.3225Z" fill="black" mask="url(#path-1-inside-1_3:26)"/>
</svg>
